# xmcd
#
# Track frame offsets:
#	150
#	10532
#	19390
#	30090
#	41495
#	49595
#	58965
#	70355
#	82310
#	91490
#	102302
#	111162
#	126460
#	137130
#	145540
#	158477
#	172687
#	183905
#	192255
#	201312
#
# Disc length: 2827 seconds
# Revision: 0
# Processed by: cddbd v1.5.2PL0 Copyright (c) Steve Scherf et al.
# Submitted via: dBpowerAMP V12.0
#
DISCID=0f0b0914
DTITLE=Roger Miller - The Best Of
DYEAR=1993
DGENRE=Country
TTITLE0=Engine, Engine No.9
TTITLE1=England Swings
TTITLE2=Kansas City Star
TTITLE3=King Of The Road
TTITLE4=Dang Me
TTITLE5=Chug-A-Lug
TTITLE6=Husbands And Wives
TTITLE7=Walking In The Sunshine
TTITLE8=My Uncle Used To Love Me but She Died
TTITLE9=When Two Worlds Collide
TTITLE10=You Can't Roller Skate In A Buffalo Herd
TTITLE11=Me And Bobby McGee
TTITLE12=Please Release Me
TTITLE13=In The Summertime (You Don't Want My Love)
TTITLE14=The Last Word In Lonesome Is Me
TTITLE15=My Elusive Dream
TTITLE16=Everything's Coming Up Roses
TTITLE17=Do-Wacka-Do
TTITLE18=Billy Bayou
TTITLE19=Burning Bridges
EXTD=
EXTT0=
EXTT1=
EXTT2=
EXTT3=
EXTT4=
EXTT5=
EXTT6=
EXTT7=
EXTT8=
EXTT9=
EXTT10=
EXTT11=
EXTT12=
EXTT13=
EXTT14=
EXTT15=
EXTT16=
EXTT17=
EXTT18=
EXTT19=
PLAYORDER=
